<?xml version="1.0" encoding="UTF-8" standalone="no"?>
<!-- Created with Inkscape (http://www.inkscape.org/) -->

<svg
   width="1000"
   height="1000"
   viewBox="0 0 264.58333 264.58333"
   version="1.1"
   id="svg1"
   xml:space="preserve"
   sodipodi:docname="logotype main.svg"
   inkscape:version="1.3 (0e150ed6c4, 2023-07-21)"
   inkscape:export-filename="..\logotype main.png"
   inkscape:export-xdpi="144"
   inkscape:export-ydpi="144"
   xmlns:inkscape="http://www.inkscape.org/namespaces/inkscape"
   xmlns:sodipodi="http://sodipodi.sourceforge.net/DTD/sodipodi-0.dtd"
   xmlns:xlink="http://www.w3.org/1999/xlink"
   xmlns="http://www.w3.org/2000/svg"
   xmlns:svg="http://www.w3.org/2000/svg"><sodipodi:namedview
     id="namedview1"
     pagecolor="#505050"
     bordercolor="#eeeeee"
     borderopacity="1"
     inkscape:showpageshadow="0"
     inkscape:pageopacity="0"
     inkscape:pagecheckerboard="0"
     inkscape:deskcolor="#505050"
     inkscape:document-units="px"
     showgrid="false"
     showguides="true"
     inkscape:zoom="0.35355339"
     inkscape:cx="248.90159"
     inkscape:cy="405.87929"
     inkscape:window-width="1366"
     inkscape:window-height="697"
     inkscape:window-x="-8"
     inkscape:window-y="-8"
     inkscape:window-maximized="1"
     inkscape:current-layer="svg1"><inkscape:grid
       id="grid2"
       units="mm"
       originx="0"
       originy="0"
       spacingx="0.99999999"
       spacingy="0.99999999"
       empcolor="#0099e5"
       empopacity="0.30196078"
       color="#0099e5"
       opacity="0.14901961"
       empspacing="5"
       dotted="false"
       gridanglex="30"
       gridanglez="30"
       visible="false" /><sodipodi:guide
       position="91.337059,195.38962"
       orientation="1,0"
       id="guide4"
       inkscape:locked="false" /><sodipodi:guide
       position="67.158691,170.9446"
       orientation="0,-1"
       id="guide5"
       inkscape:locked="false" /><sodipodi:guide
       position="66.967511,93.018638"
       orientation="0,-1"
       id="guide6"
       inkscape:locked="false" /></sodipodi:namedview><defs
     id="defs1"><linearGradient
       id="linearGradient2"><stop
         style="stop-color:#f8e4f9;stop-opacity:1;"
         offset="0"
         id="stop1" /><stop
         style="stop-color:#d5dff8;stop-opacity:1;"
         offset="1"
         id="stop2" /></linearGradient><linearGradient
       id="linearGradient10"><stop
         style="stop-color:#ac78af;stop-opacity:1;"
         offset="0"
         id="stop19" /><stop
         style="stop-color:#7689bc;stop-opacity:1;"
         offset="1"
         id="stop20" /></linearGradient><linearGradient
       id="linearGradient10-1"><stop
         style="stop-color:#f8e4f9;stop-opacity:1;"
         offset="0"
         id="stop10" /><stop
         style="stop-color:#d5dff8;stop-opacity:1;"
         offset="1"
         id="stop11" /></linearGradient><filter
       style="color-interpolation-filters:sRGB;"
       inkscape:label="Drop Shadow"
       id="filter88"
       x="-0.54672663"
       y="-0.56859814"
       width="2.1390138"
       height="2.1845795"><feFlood
         result="flood"
         in="SourceGraphic"
         flood-opacity="0.498039"
         flood-color="rgb(38,38,38)"
         id="feFlood87" /><feGaussianBlur
         result="blur"
         in="SourceGraphic"
         stdDeviation="30.000000"
         id="feGaussianBlur87" /><feOffset
         result="offset"
         in="blur"
         dx="6.000000"
         dy="6.000000"
         id="feOffset87" /><feComposite
         result="comp1"
         operator="in"
         in="flood"
         in2="offset"
         id="feComposite87" /><feComposite
         result="comp2"
         operator="over"
         in="SourceGraphic"
         in2="comp1"
         id="feComposite88" /></filter><linearGradient
       inkscape:collect="always"
       xlink:href="#linearGradient2"
       id="linearGradient1"
       x1="266.67203"
       y1="267.42822"
       x2="2.5028436"
       y2="0.2656171"
       gradientUnits="userSpaceOnUse" /><filter
       style="color-interpolation-filters:sRGB;"
       inkscape:label="Drop Shadow"
       id="filter4"
       x="-0.7731124"
       y="-0.54537621"
       width="2.6014471"
       height="2.1297079"><feFlood
         result="flood"
         in="SourceGraphic"
         flood-opacity="0.498039"
         flood-color="rgb(38,38,38)"
         id="feFlood3" /><feGaussianBlur
         result="blur"
         in="SourceGraphic"
         stdDeviation="35.000000"
         id="feGaussianBlur3" /><feOffset
         result="offset"
         in="blur"
         dx="6.000000"
         dy="6.000000"
         id="feOffset3" /><feComposite
         result="comp1"
         operator="in"
         in="flood"
         in2="offset"
         id="feComposite3" /><feComposite
         result="comp2"
         operator="over"
         in="SourceGraphic"
         in2="comp1"
         id="feComposite4" /></filter></defs><g
     id="layer2-6"
     inkscape:label="Layer 2"
     style="display:inline;mix-blend-mode:normal;fill:url(#linearGradient1);fill-opacity:1;filter:url(#filter4)"
     transform="translate(-1.0061344,-0.2656171)"><path
       id="rect47"
       style="fill:url(#linearGradient1);stroke-width:0.349978;fill-opacity:1"
       inkscape:label="rect47"
       transform="matrix(0.70857512,-0.70563539,0.71628653,0.69780628,0,0)"
       d="m -17.60282,169.3166 -43.269103,4.1e-4 c -0.0134,0.0176 -0.02779,0.0376 -0.04091,0.0549 -0.270389,0.33396 -0.516194,0.68673 -0.759396,1.04052 -0.363628,0.55964 -0.756493,1.09816 -1.166785,1.62461 -0.407875,0.51776 -0.846102,1.01086 -1.289374,1.49842 -0.244691,0.27781 -0.508387,0.53664 -0.778405,0.7895 -0.229585,0.21378 -0.453633,0.43337 -0.677957,0.65262 -0.481806,0.48413 -0.995353,0.9351 -1.504639,1.3896 -0.386029,0.33798 -0.774385,0.67333 -1.155194,1.01723 -0.30613,0.27826 -0.602741,0.56623 -0.899113,0.8548 -0.395986,0.38684 -0.79043,0.7758 -1.184524,1.16456 -0.323838,0.33091 -0.674513,0.63271 -1.022963,0.93692 -0.210023,0.1822 -0.411632,0.3739 -0.620079,0.55785 -0.16651,0.15044 -0.34926,0.28092 -0.524377,0.42062 -0.4006,0.32796 -0.77503,0.50808 -1.15114,0.53922 -0.09741,0.11083 -0.194525,0.22191 -0.292285,0.33242 -0.01383,0.024 -0.01948,0.0512 -0.03531,0.0739 -0.01204,0.0173 -0.02667,0.0327 -0.0401,0.049 -0.04607,0.0503 -0.100048,0.0923 -0.149083,0.13954 -0.04939,0.10809 -0.09998,0.21393 -0.190765,0.19737 -0.02545,0.0274 -0.05002,0.0555 -0.07562,0.0827 -0.133832,0.1422 -0.204416,0.2247 -0.302189,0.1395 -0.04373,0.022 -0.08475,0.0492 -0.129876,0.0679 -0.02329,0.0238 -0.0467,0.0476 -0.07,0.0714 -0.102442,0.10357 -0.259878,0.26616 -0.363473,0.35523 -0.0917,0.0789 -0.173739,0.26959 -0.284675,0.22534 -0.01538,-0.006 -0.03149,-0.0117 -0.04691,-0.0178 -0.0031,0.0142 -2e-6,0.0239 -0.01826,0.0548 -0.01546,0.0143 -0.03181,0.0276 -0.04804,0.041 -0.0307,0.0249 -0.06239,0.0491 -0.09521,0.0711 -0.02039,0.0138 -0.04095,0.0274 -0.06191,0.0403 l -3.7e-4,3.7e-4 c -0.02518,0.0155 -0.04933,0.0251 -0.07128,0.0301 -4.99e-4,5e-4 -9.13e-4,7.1e-4 -0.0015,7.4e-4 -0.0013,0.001 -0.0017,0.003 -0.0033,0.004 -9.81e-4,10e-4 -0.0023,0.002 -0.0033,0.003 -0.0095,0.0101 -0.01901,0.0204 -0.02853,0.0304 -0.01286,0.0132 -0.02563,0.0264 -0.03888,0.0392 -0.0057,0.005 -0.0112,0.0106 -0.01738,0.0158 -0.0015,0.001 -0.0023,0.004 -0.0037,0.003 -8.94e-4,-5.6e-4 -0.002,-1.9e-4 -0.0029,-7.3e-4 -0.0025,0.003 -0.0058,0.007 -0.0082,0.01 -0.0038,0.005 -0.007,0.0109 -0.0108,0.0157 -0.0032,0.004 -0.0062,0.008 -0.0096,0.011 l -0.0026,0.002 c -2.53e-4,9.2e-4 -4.75e-4,0.003 -7.88e-4,0.004 l -3.7e-4,3.6e-4 c -7.06e-4,0.001 -10e-4,0.003 -0.0011,0.003 l -3.61e-4,-3.6e-4 c -3.93e-4,7.9e-4 -3.26e-4,1.9e-4 -7.4e-4,7.3e-4 l -3.7e-4,3.7e-4 -3.7e-4,3.6e-4 c -0.01334,0.0222 -0.02216,0.0207 -0.02933,0.007 -1.71e-4,-0.002 -4.76e-4,-0.003 -6.74e-4,-0.004 -4.29e-4,5.4e-4 -0.0013,0.001 -0.0018,0.001 5.43e-4,8.9e-4 0.002,0.003 0.0025,0.004 0.0011,0.0103 8.48e-4,0.0194 -0.0014,0.0252 0.0021,-3.9e-4 0.0051,-7.4e-4 0.0073,-7.4e-4 -0.0012,6.6e-4 -0.0025,1.9e-4 -0.004,0.002 -9.22e-4,2.1e-4 -0.002,4.9e-4 -0.0029,7.4e-4 l -3.7e-4,3.7e-4 c -0.0031,0.005 -0.0095,0.007 -0.02047,7.7e-4 l -3.61e-4,-3.7e-4 c -0.0023,-3.3e-4 -0.0043,-5.4e-4 -0.0066,-7.1e-4 l -0.003,0.003 -0.0074,0.008 -6e-5,0.73161 58.523435,3e-5 z m -43.665207,5.1e-4 -0.0055,-3.6e-4 c -0.005,0.004 -0.01016,0.009 -0.01515,0.0128 0.0066,-0.005 0.01394,-0.008 0.02063,-0.0125 z m -13.732792,13.67513 c -1.99e-4,9e-5 -5.31e-4,-1e-4 -7.31e-4,0 -0.01937,0.0229 -0.03777,0.0467 -0.05718,0.0695 -0.01314,0.0155 0.02741,-0.0303 0.04007,-0.0461 0.0061,-0.008 0.01198,-0.0155 0.01784,-0.0234 z" /><rect
       style="fill:url(#linearGradient1);stroke-width:0.264583;fill-opacity:1"
       id="rect1"
       width="2.2384877"
       height="1.226354"
       x="140.46252"
       y="163.09166" /><path
       id="rect48"
       style="fill:url(#linearGradient1);stroke-width:0.349978;fill-opacity:1"
       transform="matrix(0.70857511,-0.70563538,0.71628653,0.69780628,0,0)"
       d="m -18.80575,214.70111 -57.954123,-4.8e-4 c 0.0026,0.002 0.0053,0.004 0.0079,0.007 0.0126,0.0106 0.02477,0.0217 0.03647,0.0332 0.0099,0.01 0.01941,0.0197 0.02921,0.0295 0.0095,0.01 0.01863,0.0189 0.02813,0.0285 l 0.04905,0.0496 0.09773,0.0988 c 0.03017,0.0306 0.06033,0.061 0.09126,0.0908 0.02927,0.0282 0.05801,0.0565 0.08695,0.085 0.02532,0.025 0.05032,0.0503 0.07538,0.0755 0.02226,0.0224 0.04481,0.0453 0.06708,0.0678 0.02067,0.0209 0.04027,0.0415 0.06094,0.0624 l 0.06383,0.0645 0.06167,0.0624 0.06636,0.0671 0.06744,0.0682 0.06708,0.0678 0.0678,0.0686 0.06311,0.0638 0.06239,0.0631 0.0642,0.0642 0.06708,0.0678 0.06094,0.0624 0.06347,0.0642 0.06275,0.0635 0.07285,0.0737 0.07754,0.0784 0.066,0.0667 0.06347,0.0642 0.06852,0.0693 0.06852,0.0693 c 0.19085,0.0115 0.413127,0.11117 0.633637,0.33415 l 0.0079,0.008 0.05085,0.0514 0.05446,0.0551 c 0.0171,0.0173 0.03447,0.0349 0.05157,0.0522 0.01899,0.0192 0.03833,0.0381 0.05735,0.0573 0.02106,0.0212 0.04152,0.0424 0.06275,0.0635 0.01256,0.0127 0.02536,0.0255 0.03861,0.0376 0.02244,0.0198 0.04631,0.0378 0.06867,0.0576 0.03475,0.0326 0.06869,0.0656 0.101739,0.0999 0.02295,0.0232 0.04594,0.0464 0.06888,0.0697 0.01904,0.0193 0.03801,0.039 0.05697,0.0583 0.02529,0.0256 0.05025,0.0513 0.075,0.0773 0.03683,0.0387 0.0731,0.0778 0.107708,0.11854 0.04548,0.0543 0.08909,0.11023 0.129344,0.16856 0.02966,0.0415 0.06161,0.0813 0.09047,0.12333 0.005,0.0108 0.01725,0.0204 0.02449,0.0277 0.01775,0.018 0.03599,0.0362 0.05374,0.0543 0.03328,0.0351 0.06693,0.0693 0.09948,0.10504 0.0418,0.0451 0.0829,0.0914 0.123167,0.13788 0.05372,0.0616 0.110469,0.1201 0.164253,0.18165 0.07923,0.0903 0.157546,0.18172 0.239104,0.26993 0.119567,0.13237 0.242538,0.26169 0.365785,0.39062 0.127702,0.13487 0.25768,0.26738 0.386105,0.40155 0.18556,0.19524 0.369616,0.39204 0.551354,0.59086 0.196455,0.21428 0.396699,0.4244 0.600515,0.63169 0.184765,0.18684 0.369115,0.37414 0.551717,0.56309 0.221229,0.22973 0.440791,0.46118 0.65557,0.697 0.06411,0.0709 0.126649,0.14305 0.190132,0.21448 2.924206,2.61532 5.869503,5.20708 8.795871,7.82001 l 41.611605,1e-4 z m -58.381383,15.41461 c -0.04715,-0.0472 -0.09418,-0.0944 -0.141391,-0.14149 l -2.1e-5,0.14142 z" /><rect
       style="fill:url(#linearGradient1);stroke-width:0.264583;fill-opacity:1"
       id="rect3"
       width="1.0338781"
       height="1.4757243"
       x="118.81396"
       y="139.84212"
       ry="0" /><path
       id="rect2"
       style="display:inline;fill:url(#linearGradient1);stroke-width:0.264583;fill-opacity:1"
       d="m 79.441145,61.119783 c -0.879473,0 -1.5875,0.708027 -1.5875,1.5875 V 182.11291 c 0.578207,-0.67758 1.046509,-1.21873 1.76475,-2.01641 0.486002,-0.53311 0.507255,-0.56231 1.073836,-1.15187 0.02579,-0.0269 -0.09825,0.11194 -0.07235,0.0853 0.262572,-0.27103 0.520552,-0.54629 0.782381,-0.81804 0.02144,-0.0222 0.08284,-0.0905 0.0677,-0.0636 -0.02157,0.0384 -0.05868,0.0657 -0.08785,0.0987 0.504148,-0.52152 1.006047,-1.06686 1.549259,-1.55288 0.01297,-0.0116 -0.02308,0.0263 -0.03462,0.0393 -0.08712,0.0954 -0.174363,0.19037 -0.261483,0.28577 0.300693,-0.31693 0.600623,-0.63432 0.902271,-0.95033 0.01578,-0.0166 0.0645,-0.0648 0.05013,-0.047 -0.03096,0.0383 -0.135413,0.14302 -0.100253,0.10852 0.39077,-0.38311 0.771847,-0.77572 1.166854,-1.15445 0.09132,-0.0875 0.158499,-0.14002 0.283704,-0.25218 0.16057,-0.16992 0.259818,-0.30231 0.84646,-0.86816 0.06228,-0.0601 0.09289,-0.0774 0.192236,-0.17467 0.430094,-0.48944 0.577547,-0.66818 1.686719,-1.8681 0.17765,-0.17589 0.351767,-0.35574 0.533301,-0.52762 0.08748,-0.0828 0.177557,-0.16277 0.266133,-0.24443 -0.117772,0.10588 0.05615,-0.0817 1.365292,-1.39113 0.177036,-0.17708 0.367265,-0.34004 0.555004,-0.50591 0.164665,-0.17741 0.25558,-0.28573 0.471806,-0.5054 0.212348,-0.21574 0.436812,-0.41975 0.660942,-0.62321 0.201909,-0.1833 -1.239768,1.20084 0.09405,-0.0941 0.0703,-0.0683 0.141565,-0.13538 0.21239,-0.20308 0.566509,-0.63796 1.142207,-1.26332 1.774052,-1.85415 0.239411,-0.25825 0.478015,-0.53065 0.369486,-0.38861 -0.0062,0.008 -2.318328,2.6614 0.346749,-0.39739 0.663047,-0.68678 0.926733,-1.08712 2.042253,-2.06034 0.01121,-0.01 -0.01924,0.0228 -0.02894,0.0341 -0.105687,0.11335 -0.422973,0.45336 -0.317293,0.34004 0.862098,-0.92472 1.412954,-1.42719 2.057239,-2.07533 0.982356,-0.8145 1.300321,-1.27761 2.029327,-1.89498 -0.0238,0.0239 -0.0476,0.0478 -0.0713,0.0718 0.48478,-0.4616 0.97222,-0.92027 1.46141,-1.37718 0.0307,-0.0287 0.12776,-0.1084 0.0982,-0.0785 -0.0881,0.0889 -0.3663,0.34142 -0.2744,0.25632 0.14588,-0.13506 0.29123,-0.27117 0.43667,-0.4067 0.15923,-0.14424 0.60777,-0.60336 0.47749,-0.43253 -0.16975,0.22257 -0.7949,0.78847 -0.59738,0.59014 0.20414,-0.20498 1.0075,-1.02151 1.29397,-1.24798 0.9816,-0.95883 1.97918,-1.90234 3.0546,-2.75694 1.1261,-0.91541 0.86499,-0.72993 1.85001,-1.45159 0.12417,-0.091 0.25084,-0.1789 0.37621,-0.2682 -0.0187,0.0168 -0.0767,0.0646 -0.0558,0.0506 0.0319,-0.0213 0.0533,-0.0386 0.092,-0.0692 0.088,-0.0825 -0.009,0.008 0.42272,-0.37879 0.002,-0.002 0.002,0.003 0.003,0.005 -0.1301,0.13183 -0.26006,0.26401 -0.39016,0.39584 0.32886,-0.32465 0.65764,-0.64945 0.9865,-0.9741 0.15489,-0.14816 0.31653,-0.28927 0.47646,-0.43202 0.16457,-0.18549 0.34898,-0.39551 0.36949,-0.41703 0.0711,-0.0745 -0.12992,0.15988 -0.19482,0.23978 0.62573,-0.75136 0.73657,-0.86895 1.33376,-1.60972 0.13734,-0.17678 0.51906,-0.72868 0.40618,-0.53537 -0.12074,0.20677 -0.54775,0.78594 -0.40773,0.5917 0.28545,-0.39598 0.55616,-0.8025 0.84388,-1.19683 0.10724,-0.14697 0.21537,-0.2952 0.33641,-0.42995 0.0407,-0.0556 0.0773,-0.11447 0.12144,-0.16743 0.0239,-0.0287 -0.039,0.0558 -0.063,0.0925 0.0163,-0.0151 0.0238,-0.0389 0.0413,-0.0527 0.0293,-0.0231 -0.0646,0.0807 -0.0667,0.0899 -0.0983,0.14425 -0.23583,0.34647 -0.17674,0.25993 0.82843,-1.21331 1.72745,-2.37749 2.75952,-3.42563 -0.0164,0.0177 -0.0246,0.0259 -0.0413,0.0439 -0.0884,0.0955 0.1747,-0.19287 0.262,-0.28939 -0.079,0.0771 -0.1433,0.16691 -0.22066,0.24546 0.91653,-0.98894 1.36259,-1.45871 2.40244,-2.40244 0.56501,-0.50005 1.14425,-0.98273 1.73995,-1.44539 -0.0638,0.0619 -0.0458,0.0477 0.66456,-0.66404 -0.0529,0.066 -0.19232,0.23327 -0.14108,0.17777 0.068,-0.0737 0.0838,-0.0949 0.14314,-0.1602 v -0.0196 -5.2e-4 -77.13431 c 0,-0.879474 -0.70803,-1.5875 -1.5875,-1.5875 z m 39.203805,79.924837 c -0.0339,0.0316 -0.0686,0.0623 -0.10232,0.094 -0.0468,0.044 -0.17737,0.18524 -0.13177,0.14004 0.30317,-0.30044 0.10279,-0.10407 0.23409,-0.23409 z m 24.04246,22.04775 c -0.0186,0.0185 -0.0357,0.0384 -0.0543,0.0568 0.0216,-0.0189 0.0694,-0.0627 0.0646,-0.0568 z m 0.0114,0 c -1.49219,1.5053 -0.71319,0.78341 -2.67735,2.51457 -0.56301,0.45004 -0.56697,0.44343 -0.87489,0.68472 -5.4e-4,5.7e-4 -0.001,0.001 -0.002,0.002 -0.0705,0.0735 -0.14159,0.14641 -0.21239,0.21963 -0.0863,0.1207 0.0861,-0.11295 -0.31058,0.43976 -0.20693,0.26685 -0.414,0.53338 -0.62063,0.80047 0.21353,-0.29259 0.53864,-0.7438 0.40721,-0.55552 -0.13961,0.2 -0.28841,0.38929 -0.43047,0.58498 0.006,-0.008 0.0128,-0.0162 0.0191,-0.0243 -0.0535,0.0733 -0.0697,0.0953 -0.1049,0.14263 -0.003,0.004 -0.005,0.005 -0.009,0.01 0.0313,-0.0428 0.0634,-0.0853 0.0946,-0.12816 -0.0481,0.0623 -0.0967,0.12416 -0.14469,0.18655 -0.0156,0.0202 0.0263,-0.0284 0.0501,-0.0579 -0.26185,0.35807 -0.51901,0.72 -0.79013,1.07436 -0.69314,0.88601 -1.41605,1.74733 -2.13578,2.61172 -1.11325,1.3258 -2.32527,2.55142 -3.60702,3.71347 -0.33335,0.31761 0.35295,-0.32339 0.26665,-0.24029 -1.03497,0.99619 -1.45328,1.35137 -2.19728,2.01279 -0.73123,0.6361 -1.51056,1.20913 -2.29547,1.7756 -0.12824,0.0926 -0.25899,0.18194 -0.38654,0.27544 -0.0265,0.0195 -0.1023,0.0826 -0.0755,0.0636 0.10872,-0.0771 0.21428,-0.15851 0.32143,-0.23771 0.43068,-0.38213 -0.34703,0.28445 -0.73587,0.61702 -0.22259,0.20747 -0.74534,0.68264 -0.22066,0.20774 -1.66299,1.59859 -0.6811,0.6377 -2.31975,2.18746 -0.0395,0.0377 -0.0774,0.0769 -0.11834,0.11317 -0.27142,0.24156 -0.54322,0.48268 -0.81804,0.72037 -0.27702,0.27347 -0.61485,0.60799 -0.65836,0.64957 0.0366,-0.0319 0.14537,-0.1289 0.11007,-0.0956 -1.12217,1.05762 -1.19523,1.09823 -1.76837,1.64538 0.78178,-0.72567 -0.81831,0.79834 -0.87591,0.84904 -0.11271,0.0992 0.43065,-0.40759 0.42065,-0.39739 -0.26467,0.27152 -0.53089,0.5416 -0.79634,0.81235 -0.1766,0.16802 -0.35222,0.33675 -0.52968,0.50385 -0.18991,0.17881 -1.07277,1.06248 -0.72606,0.75138 0.1681,-0.18319 0.67188,-0.73356 0.50437,-0.54984 -0.66187,0.72592 -1.32969,1.42227 -2.01849,2.10426 -0.16264,0.19203 -0.45525,0.51934 -0.63562,0.6966 -0.10842,0.10655 0.40845,-0.44974 0.30955,-0.33435 -0.75573,0.88125 -0.84758,0.92263 -1.83348,1.90066 -0.0797,0.0915 -0.16132,0.15656 -0.4191,0.40153 -0.10618,0.10991 -0.12677,0.13807 -0.19017,0.20722 -0.38581,0.37768 -0.76413,0.76352 -1.15755,1.13327 -0.032,0.03 -0.008,0.007 -0.0377,0.0341 -0.17043,0.17081 -0.34189,0.34056 -0.51418,0.50953 -0.20861,0.21943 -0.068,0.0988 -0.88264,0.90382 -0.0405,0.04 -0.0859,0.075 -0.12764,0.11369 -0.28207,0.3213 -0.82863,0.92946 -1.02578,1.15342 -0.28117,0.29891 -0.55238,0.60773 -0.84387,0.89658 -0.81402,0.80667 -1.11696,1.0991 -1.27693,1.24851 -0.0891,0.0939 -0.0255,0.03 -0.15244,0.16278 -0.82646,0.78182 -0.59363,0.55369 -0.78083,0.72554 -0.26296,0.26331 -0.56051,0.56321 -0.55604,0.5581 0.15723,-0.17226 0.32718,-0.33257 0.49144,-0.49816 -0.45539,0.50126 -0.94021,0.97399 -1.42834,1.44281 -0.0682,0.0655 -0.0939,0.089 -0.20463,0.19637 -0.80816,0.83693 -0.74324,0.72687 -1.42007,1.47949 -0.63961,0.70651 -0.59926,0.65193 -1.32964,1.51981 -0.13343,0.15249 -0.27564,0.29665 -0.41186,0.44648 h 0.0884 0.0951 0.0909 0.0889 0.0873 0.0894 0.0894 0.0899 0.0884 0.0899 0.0868 0.0935 0.0971 0.0925 0.0884 0.0889 0.0884 0.0879 0.0873 0.0904 0.0884 0.0884 0.0889 0.0879 0.10025 0.0925 0.0894 0.0878 0.0879 0.0946 0.0961 0.0904 0.0884 0.0894 0.0894 0.0904 0.0884 0.0904 0.0879 0.0889 0.0904 c 0.0169,-2.6e-4 0.0344,0.002 0.0512,-0.001 0.0252,-0.004 0.0489,-0.007 0.0713,-0.007 0.0472,-10e-4 0.0875,0.006 0.12196,0.0186 h 12.31552 c 0.006,0 0.0117,-0.004 0.0181,-0.004 h 66.52152 c 0.87948,0 1.5875,-0.70803 1.5875,-1.5875 V 164.6804 c 0,-0.87947 -0.70802,-1.5875 -1.5875,-1.5875 z m -3.60805,3.24269 c -0.01,0.008 -0.0195,0.0153 -0.0289,0.0227 -0.0494,0.0497 0.0172,-0.0158 -0.0703,0.0718 -9.2e-4,0.001 -0.006,0.008 -0.007,0.01 0.0195,-0.0195 0.0485,-0.0476 0.10593,-0.10439 z m -47.549549,1.69706 c -0.0499,0.0521 -0.100988,0.10299 -0.150378,0.15554 -0.05836,0.0621 -0.220931,0.26008 -0.164331,0.19638 0.105475,-0.11876 0.210173,-0.23371 0.314709,-0.35192 z m -2.815332,2.75229 c -0.07867,0.0767 -0.160938,0.1598 -0.218074,0.21445 0.04472,-0.0411 0.0895,-0.0821 0.134358,-0.12299 0.02849,-0.03 0.0552,-0.0615 0.08372,-0.0915 z m -4.029211,4.18734 c -0.09884,0.0907 -0.193285,0.18572 -0.289905,0.27853 -0.07719,0.0855 -0.31008,0.34062 -0.23151,0.25632 0.279619,-0.29992 0.408091,-0.41094 0.521415,-0.53485 z m 26.091432,19.81222 c -0.16341,0.14392 -0.32652,0.28842 -0.48834,0.43409 -0.15623,0.14064 0.31669,-0.27677 0.47232,-0.41807 z" /><path
       id="rect4"
       style="display:inline;fill:url(#linearGradient1);stroke-width:0.323229;fill-opacity:1"
       transform="matrix(0.70664831,-0.70756496,0.70755215,0.70666113,0,0)"
       d="m -73.184522,183.7727 -0.65006,-6e-5 -0.0051,0.005 -0.01609,0.0161 -0.01682,0.0168 -0.01572,0.0157 -0.01682,0.0168 -0.01426,0.0142 -0.01572,0.0157 -0.01609,0.0161 -0.01536,0.0153 -0.01609,0.0161 -0.01718,0.0172 -0.01755,0.0175 -0.01682,0.0168 -0.01682,0.0168 -0.01536,0.0153 -0.01645,0.0164 -0.01609,0.0161 -0.01792,0.0179 -0.0088,0.009 -0.008,0.008 -0.0022,0.002 -0.01463,0.0146 -0.0011,0.001 -0.01499,0.015 -7.31e-4,7.3e-4 -0.01499,0.015 -7.32e-4,7.3e-4 -0.01536,0.0153 -7.32e-4,7.3e-4 -0.01499,0.015 -7.31e-4,7.3e-4 -0.01609,0.0161 -3.66e-4,3.6e-4 -0.01645,0.0164 -0.0011,10e-4 -0.01499,0.015 -0.0011,0.001 -0.0055,0.006 -0.0033,0.003 -0.0044,0.004 -0.0018,0.002 -0.0011,0.001 -0.0018,0.002 -7.31e-4,7.3e-4 c -3.54e-4,3.5e-4 -5.66e-4,8.7e-4 -0.0011,10e-4 2.86e-4,-3.5e-4 2.71e-4,-7e-5 -0.0011,0.001 -5.66e-4,6.8e-4 -0.0013,4.9e-4 -0.0018,0.002 l -0.0091,0.009 -0.0018,0.002 -0.01609,0.0161 c -7.1e-4,7.1e-4 -0.0015,0.001 -0.0022,0.002 l -0.01463,0.0146 c -0.0025,0.002 -0.0051,0.005 -0.0077,0.008 l -0.0095,0.009 c -0.0048,0.005 -0.0095,0.01 -0.01426,0.0142 -4.91e-4,4.9e-4 -9.71e-4,9.8e-4 -0.0015,0.001 l -0.01609,0.0161 -0.01609,0.0161 -0.01572,0.0157 -0.01572,0.0157 -0.01645,0.0164 -0.01755,0.0175 -0.02121,0.0212 -0.02194,0.0219 -0.02121,0.0212 -0.02011,0.0201 -0.01499,0.015 -0.0069,0.007 -0.0066,0.007 1.390742,-5.6e-4 z m -1.53041,0.71192 c -2.59e-4,2.2e-4 -4.85e-4,5.1e-4 -7.31e-4,7.3e-4 h 7.31e-4 z" /></g></svg>
