<?xml version="1.0" encoding="UTF-8" standalone="no"?>
<!-- Created with Inkscape (http://www.inkscape.org/) -->

<svg
   width="264.58362mm"
   height="80.113983mm"
   viewBox="0 0 264.58362 80.113983"
   version="1.1"
   id="svg1"
   sodipodi:docname="wordmark web light.svg"
   inkscape:version="1.1.2 (0a00cf5339, 2022-02-04)"
   xmlns:inkscape="http://www.inkscape.org/namespaces/inkscape"
   xmlns:sodipodi="http://sodipodi.sourceforge.net/DTD/sodipodi-0.dtd"
   xmlns:xlink="http://www.w3.org/1999/xlink"
   xmlns="http://www.w3.org/2000/svg"
   xmlns:svg="http://www.w3.org/2000/svg">
  <sodipodi:namedview
     id="namedview1"
     pagecolor="#ffffff"
     bordercolor="#000000"
     borderopacity="0.25"
     inkscape:showpageshadow="2"
     inkscape:pageopacity="0.0"
     inkscape:pagecheckerboard="0"
     inkscape:deskcolor="#d1d1d1"
     inkscape:document-units="mm"
     inkscape:zoom="0.31723122"
     inkscape:cx="491.75488"
     inkscape:cy="126.091"
     inkscape:window-width="1920"
     inkscape:window-height="999"
     inkscape:window-x="1366"
     inkscape:window-y="0"
     inkscape:window-maximized="1"
     inkscape:current-layer="svg1"
     inkscape:pageshadow="2"
     showgrid="false" />
  <defs
     id="defs1">
    <linearGradient
       id="linearGradient2">
      <stop
         style="stop-color:#7689bc;stop-opacity:1"
         offset="0"
         id="stop2" />
      <stop
         style="stop-color:#ac78af;stop-opacity:1"
         offset="1"
         id="stop3" />
    </linearGradient>
    <linearGradient
       xlink:href="#linearGradient2"
       id="linearGradient3"
       x1="274.16931"
       y1="74.142059"
       x2="96.483528"
       y2="74.333176"
       gradientUnits="userSpaceOnUse" />
  </defs>
  <g
     id="layer1"
     transform="translate(-1.8796488e-4,-57.934757)">
    <path
       style="font-weight:bold;font-size:105.833px;font-family:TimeBurner;-inkscape-font-specification:'TimeBurner Bold';white-space:pre;inline-size:432.023;fill:url(#linearGradient3);stroke-width:0.264583"
       d="m 14.419558,24.588151 h 8.995805 v 63.711466 q 0,2.434159 2.222493,4.127487 2.328326,1.693328 5.503316,1.693328 v 8.995808 q -3.492489,0 -6.561646,-1.16417 -2.963324,-1.16416 -5.29165,-3.174986 -2.222493,-2.010827 -3.598322,-4.656652 -1.269996,-2.751658 -1.269996,-5.820815 z M 58.975236,103.0104 q -4.339153,0 -8.254974,-1.69332 -3.809988,-1.693332 -6.667479,-4.550823 -2.857491,-2.857491 -4.550819,-6.667479 -1.693328,-3.915821 -1.693328,-8.254974 v -32.80823 h 9.101638 v 32.80823 q 0,2.539992 0.952497,4.762485 0.952497,2.222493 2.539992,3.915821 1.693328,1.587495 3.809988,2.539992 2.222493,0.952497 4.762485,0.952497 2.539992,0 4.762485,-0.952497 2.222493,-0.952497 3.809988,-2.539992 1.693328,-1.693328 2.645825,-3.915821 0.952497,-2.222493 0.952497,-4.762485 v -32.80823 h 8.995805 V 105.5504 q 0,4.44498 -1.799161,8.25497 -1.799161,3.91582 -4.974151,6.77331 -3.069157,2.85749 -7.302477,4.44499 -4.23332,1.69333 -9.101638,1.69333 v -8.99581 q 2.963324,0 5.503316,-0.9525 2.645825,-0.95249 4.550819,-2.64582 1.904994,-1.69333 2.963324,-3.91582 1.164163,-2.11666 1.164163,-4.65665 v -6.349984 q -2.645825,1.799164 -5.714982,2.857494 -3.069157,0.95249 -6.455813,0.95249 z M 119.19421,47.977244 q 5.71498,0 10.68913,2.222493 5.07999,2.11666 8.78414,5.820815 3.80999,3.704155 5.92665,8.784139 2.22249,5.079984 2.22249,10.794966 v 26.458253 h -9.10164 V 75.599657 q 0,-3.809988 -1.48166,-7.196644 -1.37583,-3.386656 -3.91582,-5.926648 -2.43416,-2.539992 -5.82081,-3.915821 -3.38666,-1.481662 -7.30248,-1.481662 -3.80999,0 -7.19664,1.481662 -3.38666,1.375829 -5.92665,3.915821 -2.43416,2.539992 -3.91582,5.926648 -1.48167,3.386656 -1.48167,7.196644 V 102.05791 H 91.677629 V 75.599657 q 0,-5.714982 2.11666,-10.794966 2.222493,-5.079984 5.926648,-8.784139 3.809993,-3.704155 8.784143,-5.820815 4.97415,-2.222493 10.68913,-2.222493 z m 36.72409,54.080666 15.45162,-26.458253 q -1.79917,-2.963324 -3.80999,-6.34998 -1.905,-3.492489 -4.02166,-6.984978 -2.01082,-3.492489 -4.02165,-6.879145 -1.90499,-3.386656 -3.59832,-6.244147 h 10.37163 l 10.15997,17.462445 q 2.43416,-4.23332 5.07998,-8.784139 2.64583,-4.656652 4.97415,-8.678306 h 10.26581 l -15.13412,26.45825 q 1.69332,3.069157 3.59832,6.455813 2.01083,3.386656 4.02165,6.879145 2.01083,3.492489 3.91582,6.879145 1.905,3.386656 3.59833,6.24415 H 186.50403 L 176.4499,84.595462 q -2.43416,4.23332 -5.18582,8.889972 -2.64582,4.550819 -4.97415,8.572476 z m 69.21471,-54.080666 q 5.07999,0 9.31331,2.222493 4.33915,2.222493 7.30247,6.032481 3.06916,-3.809988 7.30248,-6.032481 4.23332,-2.222493 9.41914,-2.222493 4.33915,0 8.14914,1.693328 3.91582,1.693328 6.77331,4.550819 2.85749,2.857491 4.55082,6.773312 1.69333,3.809988 1.69333,8.149141 v 32.914066 h -9.10164 V 69.143844 q 0,-2.539992 -0.9525,-4.656652 -0.95249,-2.222493 -2.64582,-3.809988 -1.5875,-1.693328 -3.80999,-2.645825 -2.11666,-0.952497 -4.65665,-0.952497 -2.53999,0 -4.76249,0.952497 -2.22249,0.952497 -3.91582,2.645825 -1.58749,1.587495 -2.53999,3.809988 -0.9525,2.11666 -0.9525,4.656652 v 32.914066 h -8.9958 V 69.143844 q 0,-2.539992 -0.9525,-4.656652 -0.9525,-2.222493 -2.64582,-3.809988 -1.69333,-1.693328 -3.91582,-2.645825 -2.11666,-0.952497 -4.65666,-0.952497 -2.53999,0 -4.76248,0.952497 -2.22249,0.952497 -3.91582,2.645825 -1.5875,1.587495 -2.53999,3.809988 -0.9525,2.11666 -0.9525,4.656652 v 32.914066 h -8.99581 V 69.143844 q 0,-4.339153 1.69333,-8.149141 1.69333,-3.915821 4.55082,-6.773312 2.85749,-2.857491 6.66748,-4.550819 3.91582,-1.693328 8.25497,-1.693328 z m 64.66393,1.164163 h 9.10164 v 52.916503 h -9.10164 z m 0,-24.553256 h 9.10164 v 12.276628 h -9.10164 z m 45.50818,78.210589 q -5.71498,0 -10.68913,-2.11666 -4.97415,-2.222495 -8.78414,-5.92665 -3.70416,-3.704155 -5.92665,-8.678306 -2.11666,-5.079984 -2.11666,-10.794966 0,-5.714982 2.11666,-10.689133 2.22249,-5.079984 5.92665,-8.784139 3.80999,-3.809988 8.78414,-5.926648 4.97415,-2.222493 10.68913,-2.222493 4.44499,0 8.67831,2.11666 4.23332,2.010827 7.7258,5.503316 l -6.34998,6.34998 q -2.32832,-2.222493 -4.86831,-3.492489 -2.54,-1.375829 -5.18582,-1.375829 -3.80999,0 -7.19664,1.481662 -3.38666,1.375829 -5.92665,3.915821 -2.43416,2.539992 -3.91582,5.926648 -1.48167,3.386656 -1.48167,7.196644 0,3.809988 1.48167,7.196644 1.48166,3.386656 3.91582,5.926648 2.53999,2.434159 5.92665,3.915821 3.38665,1.481662 7.19664,1.481662 2.64582,0 5.18582,-1.269996 2.53999,-1.269996 4.86831,-3.598322 l 6.34998,6.34998 q -3.49248,3.492489 -7.7258,5.503315 -4.23332,2.01083 -8.67831,2.01083 z"
       id="text1"
       transform="matrix(0.78444029,0,0,0.78444029,-11.311094,38.646821)"
       aria-label="lynxmic" />
  </g>
</svg>
